<svg width="51" height="30" viewBox="0 0 51 30" fill="none" xmlns="http://www.w3.org/2000/svg">
<g clip-path="url(#clip0_16_163)">
<path d="M40.7065 4.54421C43.7314 4.54421 46.192 7.02894 46.192 10.083C46.192 13.1371 43.7309 15.6218 40.7065 15.6218C38.3742 15.6218 36.3782 14.1447 35.5856 12.069C35.3482 12.8877 35.013 13.6649 34.5936 14.3863C35.9426 16.334 38.1795 17.6104 40.707 17.6104C44.8177 17.6104 48.1621 14.2338 48.1621 10.0835C48.1621 5.93326 44.8177 2.55664 40.707 2.55664C38.503 2.55664 36.5192 3.5279 35.1535 5.06799C35.4826 5.8324 35.7225 6.64494 35.8604 7.49178C36.7829 5.74024 38.6095 4.54524 40.707 4.54524L40.7065 4.54421Z" fill="white"/>
<path d="M47.6793 20.816C45.803 19.5145 43.3267 18.7977 40.7064 18.7977C38.324 18.7977 36.0607 19.3901 34.2594 20.476C34.4567 20.5979 34.6499 20.7233 34.8385 20.8539C35.2605 21.1467 35.6535 21.457 36.0161 21.7821C37.3787 21.135 38.9994 20.7858 40.7059 20.7858C42.9322 20.7858 45.0124 21.3782 46.5637 22.4544C48.0018 23.4523 48.794 24.742 48.794 26.0855C48.794 26.6343 49.2346 27.0798 49.7788 27.0798C50.3229 27.0798 50.7636 26.6348 50.7636 26.0855C50.7636 24.0667 49.6682 22.1953 47.6793 20.8155V20.816Z" fill="white"/>
<path d="M10.8209 17.6094C13.3479 17.6094 15.5853 16.333 16.9337 14.3853C16.5143 13.6639 16.1791 12.8872 15.9413 12.068C15.1487 14.1437 13.1526 15.6208 10.8204 15.6208C7.79543 15.6208 5.33438 13.136 5.33438 10.082C5.33438 7.02792 7.79543 4.54319 10.8204 4.54319C12.9184 4.54319 14.7445 5.73871 15.667 7.48974C15.8049 6.64289 16.0448 5.83087 16.3739 5.06594C15.0077 3.52585 13.0243 2.5546 10.8204 2.5546C6.70969 2.5546 3.36523 5.93122 3.36523 10.0815C3.36523 14.2317 6.70969 17.6083 10.8204 17.6083L10.8209 17.6094Z" fill="white"/>
<path d="M16.6888 20.8544C16.8774 20.7238 17.0706 20.5979 17.2679 20.476C15.4666 19.3906 13.2033 18.7982 10.8209 18.7982C8.20059 18.7982 5.72381 19.515 3.84798 20.8165C1.85905 22.1958 0.763672 24.0677 0.763672 26.086C0.763672 26.6348 1.20436 27.0803 1.74799 27.0803C2.29162 27.0803 2.73282 26.6354 2.73282 26.086C2.73282 24.742 3.52494 23.4523 4.96313 22.4549C6.51441 21.3787 8.59462 20.7863 10.8209 20.7863C12.5278 20.7863 14.1481 21.135 15.5107 21.7821C15.8733 21.457 16.2663 21.1467 16.6883 20.8539L16.6888 20.8544Z" fill="white"/>
<path d="M18.0376 13.6076C18.1462 13.8001 18.2618 13.988 18.384 14.1708C19.9819 16.5674 22.6935 18.147 25.7636 18.147C28.8337 18.147 31.5453 16.5674 33.1432 14.1708C33.2654 13.9875 33.3806 13.7996 33.4896 13.6076C33.6077 13.3982 33.7178 13.1837 33.8197 12.9645C34.3542 11.8115 34.6539 10.5264 34.6539 9.17165C34.6539 8.19937 34.4993 7.26343 34.2153 6.38587C34.1407 6.15547 34.0571 5.92866 33.9648 5.70696C33.8796 5.50268 33.7878 5.30197 33.6884 5.10588C32.2167 2.19364 29.2171 0.195312 25.7636 0.195312C22.3101 0.195312 19.3105 2.19364 17.8394 5.10485C17.74 5.30146 17.6477 5.50165 17.563 5.70594C17.4707 5.92763 17.387 6.15445 17.3125 6.38485C17.028 7.26241 16.8733 8.19834 16.8733 9.17062C16.8733 10.5254 17.1725 11.811 17.7075 12.964C17.8094 13.1831 17.919 13.3982 18.0376 13.6071V13.6076ZM25.7636 2.56637C29.1441 2.56637 31.9342 5.16885 32.2715 8.49376C32.2943 8.71648 32.3055 8.94227 32.3055 9.17114C32.3055 9.67289 32.2497 10.1619 32.1437 10.6324C31.4834 13.5733 28.8733 15.7759 25.7636 15.7759C22.654 15.7759 20.0438 13.5738 19.3835 10.6324C19.2781 10.1619 19.2218 9.67289 19.2218 9.17114C19.2218 8.94227 19.2334 8.71648 19.2557 8.49376C19.593 5.16885 22.3826 2.56688 25.7636 2.56688V2.56637Z" fill="white"/>
<path d="M35.223 22.8855C35.0815 22.7549 34.9349 22.6269 34.7823 22.502C34.5592 22.3192 34.3254 22.1416 34.0789 21.9706C33.7528 21.7443 33.411 21.5333 33.0561 21.3372C32.8801 21.2399 32.7011 21.1457 32.5185 21.0561C32.3365 20.9665 32.1508 20.881 31.9622 20.7991C30.1122 19.9942 27.9813 19.5637 25.7637 19.5637C23.546 19.5637 21.4171 19.9942 19.5677 20.7981C19.379 20.88 19.1934 20.9655 19.0109 21.0551C18.8278 21.1447 18.6488 21.2389 18.4723 21.3367C18.1168 21.5328 17.7745 21.7443 17.4479 21.9706C17.2015 22.1416 16.9672 22.3192 16.744 22.502C16.5919 22.6269 16.4448 22.7549 16.3039 22.885C16.1603 23.0171 16.0224 23.1522 15.8906 23.2895C14.5112 24.7282 13.7698 26.4413 13.7698 28.2543C13.7698 28.9091 14.2957 29.4396 14.9438 29.4396C15.5919 29.4396 16.1177 28.9086 16.1177 28.2543C16.1177 26.6518 17.0625 25.1137 18.7771 23.9238C20.6265 22.6408 23.1074 21.9337 25.7627 21.9337C28.4179 21.9337 30.8983 22.6403 32.7482 23.9238C34.4633 25.1137 35.4081 26.6518 35.4081 28.2543C35.4081 28.9091 35.934 29.4396 36.5821 29.4396C37.2302 29.4396 37.756 28.9086 37.756 28.2543C37.756 26.4413 37.0146 24.7277 35.6353 23.2895C35.5034 23.1517 35.365 23.0171 35.222 22.885L35.223 22.8855Z" fill="white"/>
</g>
<defs>
<clipPath id="clip0_16_163">
<rect width="50" height="29.2453" fill="white" transform="translate(0.763672 0.195312)"/>
</clipPath>
</defs>
</svg>
