<svg width="31" height="34" viewBox="0 0 31 34" fill="none" xmlns="http://www.w3.org/2000/svg">
<path d="M28.3448 20.7515C28.3448 15.9686 26.1779 13.08 24.0203 11.3613C22.9308 10.4934 21.8378 9.92087 21.0169 9.56634C20.6076 9.38957 20.2691 9.26802 20.0371 9.19199C19.9364 9.15901 19.8558 9.13549 19.7986 9.11884H10.6677C10.6106 9.13548 10.5299 9.15901 10.4292 9.19199C10.1972 9.26801 9.85871 9.38959 9.44941 9.56634C8.62846 9.92087 7.53486 10.4934 6.44535 11.3613C4.28786 13.08 2.12152 15.9689 2.12152 20.7515C2.1216 24.9578 3.84889 27.4183 6.071 28.9086C8.34382 30.4329 11.2156 30.9912 13.531 31.156H16.9353C19.2539 30.9912 22.1258 30.4329 24.3978 28.9086C26.6189 27.4184 28.3447 24.9581 28.3448 20.7515ZM30.2332 20.7515C30.2331 25.5898 28.1915 28.6371 25.4495 30.4767C22.7682 32.2756 19.496 32.8709 17.0361 33.0425C17.0142 33.044 16.9922 33.0443 16.9703 33.0443H13.496C13.4741 33.0443 13.452 33.044 13.4302 33.0425C10.9734 32.8709 7.7012 32.2754 5.01924 30.4767C2.27661 28.6373 0.233237 25.5901 0.233154 20.7515C0.233154 15.2933 2.74648 11.8934 5.26881 9.88414C6.51931 8.88803 7.76664 8.23626 8.7007 7.83288C9.16867 7.63079 9.56119 7.48934 9.84097 7.39767C9.98098 7.3518 10.0935 7.31834 10.1729 7.29563C10.2125 7.2843 10.2441 7.27529 10.267 7.2692C10.2783 7.26616 10.2876 7.26423 10.2946 7.26243C10.2981 7.26155 10.3009 7.26057 10.3032 7.25997C10.3043 7.2597 10.3055 7.25957 10.3063 7.25936L10.3075 7.25875C10.308 7.25862 10.3086 7.25861 10.4926 7.99577L10.3088 7.25875C10.3835 7.24009 10.4604 7.23047 10.5374 7.23047H19.9289L20.0438 7.23723C20.0821 7.24192 20.1201 7.2494 20.1575 7.25875L19.9289 8.17465C20.1476 7.2981 20.1572 7.26025 20.1582 7.25875L20.1594 7.25936C20.1603 7.25959 20.1619 7.25967 20.1631 7.25997C20.1654 7.26057 20.1683 7.26156 20.1717 7.26243C20.1787 7.26424 20.188 7.26616 20.1993 7.2692C20.2222 7.2753 20.2537 7.28429 20.2934 7.29563C20.3727 7.31832 20.4849 7.35185 20.6247 7.39767C20.9045 7.48935 21.2975 7.63073 21.7656 7.83288C22.6997 8.23625 23.9464 8.88806 25.1969 9.88414C27.7193 11.8934 30.2332 15.2931 30.2332 20.7515Z" fill="white"/>
<path d="M23.6116 0.503906L23.6822 0.506365C24.0339 0.532717 24.3441 0.754114 24.482 1.08296C24.6291 1.43373 24.5512 1.8388 24.2847 2.11013L19.6836 6.79294C19.5061 6.97362 19.2632 7.0757 19.0099 7.0757H11.4564C11.2002 7.07565 10.955 6.97113 10.7772 6.78679L6.25785 2.10398C5.99484 1.83145 5.91997 1.42791 6.06791 1.07927C6.21599 0.730575 6.55827 0.503906 6.9371 0.503906H23.6116ZM11.8578 5.18733H18.614L21.3599 2.39228H9.16048L11.8578 5.18733Z" fill="white"/>
<path d="M10.2119 15.8742C10.5428 15.7676 10.8977 15.9497 11.0043 16.2805L13.1416 22.915L15.2703 16.4225C15.3568 16.1587 15.6062 15.9825 15.8838 15.9892C16.1612 15.9958 16.4013 16.1833 16.4751 16.4508L18.1895 22.6704L20.0054 16.583C20.1048 16.25 20.4555 16.0607 20.7885 16.16C21.1215 16.2595 21.3108 16.6101 21.2114 16.9432L18.7692 25.1323C18.6889 25.4013 18.4402 25.5845 18.1594 25.5816C17.8787 25.5786 17.6341 25.39 17.5595 25.1193L15.8162 18.7971L13.7348 25.1482C13.6499 25.4073 13.408 25.5822 13.1355 25.5816C12.8628 25.5809 12.6216 25.4047 12.538 25.1452L9.8056 16.6666C9.69904 16.3357 9.88106 15.9808 10.2119 15.8742Z" fill="white"/>
<path d="M21.3261 19.8633C21.6737 19.8634 21.9556 20.1452 21.9556 20.4927C21.9556 20.8403 21.6737 21.1221 21.3261 21.1222H9.97687C9.62923 21.1222 9.34741 20.8404 9.34741 20.4927C9.34741 20.1451 9.62923 19.8633 9.97687 19.8633H21.3261Z" fill="white"/>
<path d="M19.3245 4.55847C19.846 4.55847 20.2687 4.9812 20.2687 5.50266V7.86312C20.2687 8.38458 19.846 8.8073 19.3245 8.8073H10.8269C10.3054 8.8073 9.88269 8.38458 9.88269 7.86312V5.50266C9.88269 4.9812 10.3054 4.55847 10.8269 4.55847H19.3245ZM11.7711 6.91893H18.3804V6.44684H11.7711V6.91893Z" fill="white"/>
</svg>
