<svg width="31" height="34" viewBox="0 0 31 34" fill="none" xmlns="http://www.w3.org/2000/svg">
<path d="M10.1952 12.4788C10.5493 12.3626 10.9292 12.5611 11.0433 12.9219L13.3303 20.1561L15.6028 13.0768L15.6449 12.9736C15.7619 12.7441 15.9988 12.598 16.2588 12.6041C16.5558 12.6112 16.8132 12.8158 16.8924 13.1077L18.7333 19.8939L20.6776 13.2518C20.784 12.8886 21.1593 12.6822 21.5158 12.7905C21.8722 12.899 22.0748 13.2814 21.9685 13.6447L19.3544 22.5764C19.2686 22.8696 19.0027 23.0694 18.7024 23.0665C18.402 23.0634 18.1396 22.858 18.0596 22.563L16.1884 15.6667L13.9659 22.5938C13.875 22.8764 13.6162 23.0671 13.3244 23.0665C13.0324 23.0658 12.7744 22.8736 12.6848 22.5905L9.76026 13.343C9.64621 12.9821 9.84102 12.595 10.1952 12.4788Z" fill="white"/>
<path d="M22.0918 16.8328C22.4638 16.8329 22.7655 17.1402 22.7655 17.5193C22.7655 17.8984 22.4638 18.2057 22.0918 18.2058H9.94412C9.57203 18.2058 9.27039 17.8985 9.27039 17.5193C9.27039 17.1401 9.57203 16.8328 9.94412 16.8328H22.0918Z" fill="white"/>
<path d="M0.903076 17.2196C0.903125 9.68407 6.04667 3.68119 12.8665 2.24716C13.4131 2.13222 13.9479 2.49066 14.0607 3.04767C14.1733 3.60453 13.8216 4.14888 13.2751 4.26386C7.36141 5.50733 2.92434 10.6949 2.92429 17.2196C2.92429 23.7415 7.55627 29.1692 13.6554 30.2517C14.2051 30.3494 14.5729 30.8829 14.4772 31.4431C14.3813 32.0032 13.8584 32.3779 13.3087 32.2805C6.25644 31.0288 0.903076 24.7579 0.903076 17.2196Z" fill="white"/>
<path d="M28.8818 17.2166C28.8817 11.1102 24.8134 5.96201 19.2811 4.44595C18.7422 4.29812 18.4229 3.7333 18.5678 3.18417C18.7128 2.635 19.2671 2.30975 19.8061 2.4574C26.1988 4.20923 30.903 10.1553 30.903 17.2166C30.903 24.7995 25.4846 31.0928 18.3816 32.293C17.8311 32.3859 17.311 32.0065 17.2197 31.4455C17.1284 30.8844 17.5007 30.3539 18.0513 30.2608C24.194 29.2228 28.8818 23.7764 28.8818 17.2166Z" fill="white"/>
<path d="M10.0038 1.18524C10.1718 0.642897 10.7395 0.341745 11.2717 0.512781L15.1792 1.7692C15.4847 1.86742 15.727 2.10754 15.8313 2.41618C15.9355 2.72478 15.8896 3.0657 15.7082 3.33469L13.4449 6.69162C13.1288 7.16035 12.4995 7.27915 12.0395 6.95712C11.5795 6.63503 11.4629 5.9938 11.779 5.52504L13.2686 3.31458L10.6638 2.47719C10.1315 2.30607 9.83598 1.72759 10.0038 1.18524Z" fill="white"/>
<path d="M18.4801 27.3525C18.8389 26.9169 19.4763 26.8596 19.9039 27.2251C20.3314 27.5907 20.3869 28.2403 20.0282 28.676L18.3386 30.7269L20.8553 31.817C21.3689 32.0395 21.6085 32.6445 21.3902 33.1679C21.1719 33.6912 20.5787 33.9353 20.0651 33.713L16.2918 32.0791C15.997 31.9515 15.7789 31.6886 15.7042 31.3712C15.6296 31.0539 15.7071 30.7194 15.9128 30.4694L18.4801 27.3525Z" fill="white"/>
</svg>
